<?xml version="1.0" encoding="utf-8"?>
<!-- Generator: Adobe Illustrator 14.0.0, SVG Export Plug-In . SVG Version: 6.00 Build 43363)  -->
<!DOCTYPE svg PUBLIC "-//W3C//DTD SVG 1.1//EN" "http://www.w3.org/Graphics/SVG/1.1/DTD/svg11.dtd">
<svg version="1.1" id="Layer_1" xmlns="http://www.w3.org/2000/svg" xmlns:xlink="http://www.w3.org/1999/xlink" x="0px" y="0px"
	 width="841.89px" height="595.28px" viewBox="0 0 841.89 595.28" enable-background="new 0 0 841.89 595.28" xml:space="preserve">
<g>
	<g>
		<path d="M311.912,152.458c-2.542,1.416-9.29,3.224-13.241,3.917c-1.521,0.267-4.251,0.582-6.646,0.684
			c-2.401,0.103-4.485-0.011-5.67-0.127c-1.677,1.32-7.732,3.806-11.769,4.614c-5.556,17.32-10.983,34.675-16.294,52.074
			c-0.644,0.124-1.285,0.251-1.926,0.379c-1.068-16.017-2.004-32.041-2.788-48.079c-4.433,0.968-9.973,1.069-11.385,0.24
			c-2.352,1.194-8.623,3.629-13.792,4.874c-2.265,0.539-5.189,1.056-7.387,1.295c-2.528,0.278-4.425,0.29-5.682,0.275
			c-1.492,1.344-7.739,4.702-11.713,5.729c-0.045,4.539-0.078,9.078-0.088,13.629c0.994-0.252,1.99-0.505,2.985-0.756
			c0.25-1.522,0.501-3.05,0.756-4.57c0.281-1.696,1.416-2.795,3.063-3.207c1.319-0.333,1.886,0.022,1.339,3.406
			c-1.841,11.375-3.574,22.871-5.137,34.276c-1.273,9.303-4.887,12.518-7.359,14.106c2.89,0.293,3.449,0.982,3.258,2.511
			c-0.189,1.528-1.298,2.613-3.769,4.197c2.212,0.626,4.9,2.171,3.826,12c-1.344,12.299-2.54,24.802-3.598,37.147
			c-0.158,1.87-0.509,2.128-2.188,2.51c-1.345,0.312-1.994,0.126-1.88-1.241c0.173-2.053,0.347-4.097,0.526-6.141
			c-0.905,0.208-1.801,0.42-2.703,0.631c-1.446,5.229-2.872,10.467-4.275,15.708c3.386-0.788,9.326-0.463,10.898,0.53
			c1.741-1.228,5.837-2.988,9.514-3.783c2.34-0.505,4.331-0.765,6.304-0.85c1.992-0.246,3.283-0.013,3.911,0.36
			c1.461-2.164,6.212-4.493,9.858-5.227c-1.173-4.491-2.337-8.974-3.494-13.453c-0.884,0.187-1.768,0.372-2.646,0.552
			c-0.162,1.889-0.318,3.767-0.469,5.648c-0.138,1.712-0.818,2.023-2.478,2.371c-1.657,0.353-2.636,0.217-2.481-1.654
			c0.909-11.031,1.945-22.143,3.083-33.155c0.791-7.667,4.003-16.035,6.863-18.489c-2.181-0.526-2.739-1.23-2.56-2.761
			c0.161-1.367,1.29-2.781,3.035-3.985c-1.201-0.571-4.117-3.108-3.056-11.254c0.782-5.999,1.626-12.033,2.48-18.043
			c0.651-0.153,1.306-0.304,1.958-0.448c0.336,6.624,0.66,13.313,1.11,19.901c0.435,6.316,0.274,8.072-0.829,9.307
			c1.846,0.597,3.34,1.446,3.183,2.808c-0.159,1.367-1.283,2.768-3.349,4.05c1.192,0.742,2.255,2.394,3.444,12.439
			c1.739,14.69,3.765,29.525,5.773,44.277c1.974-0.396,5.805,0.401,7.32,1.817c1.428-1.971,4.816-4.123,7.105-4.531
			c4.565-16.681,9.135-33.539,14.059-49.937c2.184-7.269,3.928-11.152,5.964-12.698c-2.177-0.119-3.264-1.773-3.122-3.144
			c0.125-1.197,1.864-2.866,4.165-3.952c-0.526-0.915-0.335-5.337,1.028-9.606c2.278-7.132,4.512-14.373,6.801-21.553
			c0.52-0.097,1.04-0.188,1.559-0.282c-0.697,5.952-1.383,11.902-2.034,17.847c-0.788,7.192-4.095,12.168-5.782,13.481
			c2.45,0.408,2.606,1.903,2.502,2.927c-0.156,1.546-1.866,3.022-3.205,3.935c1.811,0.696,4.074,4.318,3.052,13.999
			c-1.196,11.334-1.964,23.196-2.821,34.759c-0.189,2.573-1.227,3.768-2.84,4.037c-1.294,0.216-2.229-0.135-2.104-1.852
			c0.128-1.772,0.264-3.562,0.397-5.33c-0.757,0.122-1.51,0.254-2.261,0.384c-1.33,4.927-2.649,9.854-3.956,14.784
			c3.575-0.626,9.604,0.257,10.465,1.652c2.983-1.679,8.822-3.129,13.962-3.902c2.888-0.435,5.441-0.64,7.991-0.833
			c2.219,0.02,4.435,0.053,5.671,0.568c0.755-2.168,5.612-4.03,9.112-4.481c-0.873-4.753-1.737-9.491-2.593-14.228
			c-0.739,0.101-1.48,0.204-2.223,0.305c-0.129,2.07-0.262,4.147-0.394,6.217c-0.056,0.861-1.046,1.508-2.634,1.731
			c-1.592,0.223-2.21-0.04-2.132-1.243c0.782-11.932,1.648-23.958,2.592-35.876c0.926-11.686,4.676-15.322,7.245-16.541
			c-2.415-0.505-3.53-1.866-3.441-2.9c0.106-1.204,1.179-2.896,3.106-3.852c-1.8-0.42-4.671-2.925-3.752-12.351
			c1.132-11.611,2.37-23.314,3.673-34.916c0.213-1.889,0.958-3.197,2.171-3.387c1.509-0.233,1.738,0.408,1.563,1.956
			c-0.178,1.611-0.356,3.213-0.529,4.818c0.707-0.108,1.415-0.216,2.118-0.327c1.347-5.052,2.695-10.108,4.057-15.163
			C316.983,154.514,312.649,153.688,311.912,152.458z M535.154,248.774c0.073,1.538,0.158,3.078,0.232,4.616
			c0.04,0.739-0.727,1.682-1.809,1.551c-1.356-0.159-2.211-0.997-2.265-2.187c-1.979-10.9-4.044-21.839-6.027-32.683
			c-1.211-6.616,0.442-10.306,2.218-11.419c-2.155-0.856-3.573-2.506-3.639-3.545c-0.057-0.892,0.915-2.114,3.25-2.556
			c-3.258-1.739-5.602-2.534-7.971-14.282c-2.571-12.754-5.306-25.601-7.979-38.397c-1.794-0.509-3.365-1.438-4.228-3.023
			c-1.462,0.72-5.978,0.797-9.507,0.424c-1.511-0.159-3.813-0.524-5.816-1.039c-1.763-0.451-3.553-0.941-4.322-1.459
			c-0.438,1.302-1.896,2.052-4.139,2.159c-1.293,12.471-2.676,24.996-3.948,37.409c-0.983,9.572-3.451,11.388-6.241,12.999
			c1.585,0.997,2.663,2.27,2.699,3.317c0.036,1.198-1.486,2.29-2.771,2.804c1.882,1.764,3.993,4.349,3.248,11.874
			c-1.066,10.729-2.025,21.607-3.065,32.404c0.016,0.603-0.235,1.63-1.828,1.542c-1.592-0.091-2.145-0.722-2.168-1.767
			c-0.031-1.548-0.068-3.097-0.102-4.647c-0.62-0.033-1.239-0.068-1.863-0.104c-0.441,4.121-0.891,8.24-1.335,12.365
			c1.867,0.093,5.372,1.477,6.197,3.026c2.117-0.928,4.786-1.208,7.459-1.038c1.337,0.085,2.947,0.342,4.568,0.603
			c1.614,0.408,2.962,0.805,4.05,1.482c0.766-1.438,3.686-2.115,6.106-1.925c-0.136-4.336-0.283-8.675-0.434-13.016
			c-0.62-0.045-1.241-0.101-1.866-0.142c-0.116,1.727-0.242,3.461-0.358,5.193c-0.248,0.722-1.025,1.562-2.093,1.482
			c-1.068-0.083-1.896-0.892-1.932-2.091c0.46-5.089,0.917-10.186,1.362-15.27c-0.057-1.645,1.486-3.022,4.14-2.804
			c2.828,0.234,5.667,0.481,8.495,0.742c2.931,0.272,4.602,2.068,5.202,3.613c0.837,5.085,1.671,10.174,2.502,15.271
			c0.307,1.065,0.074,2.079-0.994,1.982c-1.07-0.103-1.643-0.898-1.934-1.52c-0.331-1.619-0.662-3.235-0.992-4.857
			c-0.625-0.058-1.25-0.111-1.876-0.171c0.337,4.105,0.666,8.202,0.996,12.31c2.692,0.23,7.047,1.688,7.912,3.261
			c2.39-0.815,7.246-0.768,11.035-0.36c1.899,0.203,4.074,0.591,6.256,0.989c1.919,0.511,4.109,1.062,5.227,1.787
			c0.473-1.423,3.414-2.256,5.6-1.986c-1.023-4.222-2.053-8.436-3.089-12.651C536.603,248.954,535.873,248.863,535.154,248.774z
			 M497.045,220.098c-4.214-0.375-5.855-1.69-5.749-5.56c0.367-3.846,2.79-8.254,4.837-9.257c-1.592-0.741-2.16-1.837-2.222-3.178
			c-0.067-1.494,0.934-2.301,2.203-2.926c-1.341-1.017-2.554-4.852-2.698-7.839c0.201-4.795,0.4-9.59,0.589-14.38
			c-0.076-1.494,0.147-2.073,0.923-1.996c0.771,0.074,1.317,0.719,1.394,2.215c0.595,4.866,1.188,9.729,1.772,14.598
			c0.091,1.789,0.065,6.698-1.195,7.476c1.61,1.042,2.447,2.159,2.502,3.354c0.324,1.222-0.426,2.042-1.951,2.795
			c1.647,1.639,4.438,5.792,5.184,10.155C503.322,219.628,501.793,220.521,497.045,220.098z M574.859,256.258
			c0.089,1.23,0.176,2.461,0.265,3.692c0.083,1.185-0.161,1.725-1.539,1.493c-1.11-0.182-1.696-0.718-1.896-3.519
			c-0.76-10.379-1.57-20.832-2.449-31.191c-0.529-6.189,1.093-8.832,3.439-9.726c-1.697-0.884-3.158-2.157-3.27-3.338
			c-0.11-1.181,0.857-2.318,2.728-2.42c-2.296-1.574-4.643-3.896-5.383-11.271c-1.078-10.72-2.216-21.547-3.438-32.235
			c-0.171-1.473,0.033-2.026,1.089-1.827c1.064,0.2,1.649,0.753,1.803,2.081c0.22,1.872,0.436,3.741,0.647,5.619
			c0.623,0.114,1.253,0.229,1.88,0.355c0.455-4.3,0.901-8.592,1.339-12.882c-2.642-0.381-7.308-2.563-8.55-4.242
			c-1.738,0.534-5.628,0.388-10.092-0.404c-2.096-0.374-4.216-0.913-5.804-1.455c-1.829-0.626-3.197-1.132-4.289-1.751
			c-0.916,1.009-5.96,1.642-8.052,1.169c1.195,4.384,2.39,8.77,3.578,13.15c0.614,0.098,1.225,0.196,1.832,0.292
			c-0.119-1.29-0.248-2.573-0.376-3.863c0.095-1.737,0.278-2.438,1.583-2.226c1.044,0.167,1.631,0.848,1.815,2.778
			c1.033,10.574,2.05,21.197,2.98,31.758c0.614,6.948-1.373,8.715-3.122,9.92c1.91,0.729,3.096,2.232,3.194,3.414
			c0.083,1.043-1.17,2.025-2.729,2.381c1.95,1.164,4.277,3.442,4.854,11.143c0.796,10.556,1.531,21.175,2.215,31.747
			c0.157,2.368-0.352,3.036-1.454,2.878c-1.639-0.232-1.939-0.722-2.04-2.343c-0.093-1.527-0.191-3.067-0.287-4.602
			c-0.729-0.103-1.454-0.205-2.183-0.307c-0.658,3.979-1.33,7.965-2.003,11.953c2.755,0.659,6.681,2.536,8.695,4.434
			c2.428-0.536,4.593-0.821,10.393,0.049c3.046,0.454,4.99,0.903,6.673,1.459c1.948,0.455,3.091,1.074,4.229,1.686
			c1.301-1.104,5.647-2.007,8.45-1.384c-0.737-4.016-1.476-8.027-2.232-12.043C576.526,256.537,575.688,256.39,574.859,256.258z
			 M655.184,285.726c-1.12-10.7-6.555-21.636-12.35-30.566c-5.608-8.637-5.209-12.239-3.427-13.835
			c-2.665-0.656-5.723-2.073-6.85-3.525c-1.11-1.28-0.686-3.207,1.491-3.86c-10.877-5.937-19.175-17.623-24.991-28.274
			c-4.199-7.684-8.07-16.617-9.479-25.252c-0.744-4.574,1.483-7.119,7.877-5.562c7.062,1.721,12.669,6.022,13.514,11.93
			c0.446,3.13,0.894,6.272,1.316,9.396c0.921,6.772,0.205,8.632-1.804,10.169c7.703,2.762,12.242,8.527,12.639,17.083
			c0.885,0.217,1.769,0.433,2.65,0.651c-1.303-10.234,1.01-12.029,9.089-11.598c-2.893-2.426-4.595-5.547-5.458-11.606
			c-0.684-4.795-1.396-9.601-2.13-14.394c-0.554-3.636-0.258-7.714,1.167-8.658c-3.581-0.804-8.021-3.144-10.009-5.837
			c-1.19,0.346-3.955,0.625-6.54-0.045c-3.235-0.835-6.229-2.114-9.163-3.176c-3.234-1.167-6.255-2.361-10.013-3.326
			c-9.767-2.508-30.284-3.258-27.908,13.04c1.874,12.833,7.52,25.4,14.271,36.069c4.002,6.323,4.135,9.613,2.751,11.374
			c2.933,0.959,5.62,2.556,7.052,4.232c0.752,1.187,0.963,3.289-0.514,4.348c3.617,1.276,7.052,3.983,11.785,9.888
			c8.971,11.192,17.655,25.084,18.984,39.727c0.523,5.811-2.309,8.707-11.551,6.764c-5.592-1.173-10.314-4.197-10.994-13.278
			c-0.291-3.904-0.602-7.814-0.919-11.714c-0.443-5.415-0.05-8.078,1.484-8.966c-7.609-2.976-11.361-5.777-12.271-15.77
			c-0.756-0.154-1.509-0.307-2.264-0.46c0.922,10.345-1.847,11.476-10.422,11.22c2.049,1.772,3.618,5.364,3.981,10.089
			c0.481,6.255,0.938,12.537,1.354,18.784c0.387,5.78-0.777,7.656-2.641,8.713c4.578,1.344,7.583,3.132,9.66,5.418
			c1.89-0.679,3.16-1.13,6.092-0.56c2.942,0.572,5.923,1.5,9.234,2.686c3.324,1.188,7.36,2.303,12.586,3.453
			C633.496,302.92,657.021,303.22,655.184,285.726z M459.424,242.017c0.02,1.45,0.034,2.903,0.051,4.352
			c0.009,0.896-0.521,1.183-1.315,1.157c-1.061-0.036-1.606-0.811-1.619-2.156c-0.112-11.141-0.213-22.312-0.333-33.467
			c-0.073-7.204-6.837-10.598-12.807-12.668c7.712-2.227,12.601-5.034,12.492-13.586c-0.116-9.342-0.122-18.832-0.377-28.049
			c-0.33-12.109-16.44-16.146-26.219-16.215c-5.678-0.039-8.925,0.609-11.644,0.917c-2.965,0.338-5.958,0.672-9.434,0.743
			c-1.488,0.033-3.466-0.071-4.949-0.331c-1.48-0.26-2.709-0.669-3.191-0.953c-1.038,1.377-5.3,2.572-8.278,2.409
			c0.659,4.567,1.328,9.139,2.003,13.708c0.671-0.021,1.339-0.047,2.011-0.072c0.043-1.404,0.092-2.804,0.138-4.209
			c0.067-2.099,0.584-2.416,1.583-2.449c0.75-0.026,1.242,0.104,1.177,2.208c-0.269,8.405-0.516,16.826-0.747,25.23
			c-0.262,9.61-0.665,15.018-5.886,17.615c2.555,0.954,3.561,1.971,3.536,3.019c-0.015,0.452-0.287,0.918-0.815,1.383
			c-0.526,0.472-1.322,0.946-2.371,1.432c3.059,2.29,4.757,6.749,4.587,14.105c-0.213,9.369-0.411,18.752-0.602,28.117
			c-0.044,2.254-0.581,2.573-1.643,2.606c-1.59,0.055-1.836-0.994-1.812-2.042c0.029-1.358,0.058-2.713,0.089-4.065
			c-0.708,0.022-1.415,0.05-2.121,0.076c-1.167,4.552-2.334,9.105-3.502,13.661c2.408-0.096,7.706,1.521,8.746,2.548
			c1.879-0.962,6.959-1.694,10.417-1.763c1.862-0.038,3.997,0.077,6.122,0.346c2.122,0.272,3.988,0.702,5.046,0.999
			c1.603-1.22,6.137-2.595,9.33-2.59c-0.857-4.261-1.721-8.518-2.575-12.775c-0.708,0-1.41,0-2.113,0
			c-0.013,1.357-0.026,2.709-0.031,4.062c-0.013,1.349-0.279,1.498-1.072,1.504c-2.12,0.011-2.904-1.787-2.842-8.249
			c0.091-9.612,0.196-19.238,0.299-28.856c0.054-5.251,2.143-6.332,7.577-6.325c5.698,0.011,8.545,0.965,8.534,6.51
			c-0.024,14.22-0.036,28.445-0.057,42.664c2.93,0.028,6.655,2.34,7.45,4.157c1.857-0.72,5.058-0.805,7.188-0.747
			c1.062,0.027,2.399,0.058,3.73,0.247c1.328,0.189,2.663,0.53,3.206,0.845c1.047-1.167,5.567-2.513,7.967-2.417
			c-0.934-4.188-1.867-8.374-2.802-12.555C460.838,242.065,460.136,242.04,459.424,242.017z M434.893,188.584
			c-0.012,6.005-2.587,7.156-8.256,7.147c-5.401-0.009-7.714-1.185-7.665-5.389c0.141-11.754,0.307-23.53,0.471-35.294
			c0.052-3.751,2.827-5.726,7.307-5.714c3.984,0.009,8.223,1.267,8.21,5.921C434.924,166.362,434.903,177.476,434.893,188.584z
			 M387.778,195.945c-2.781-1.495-4.565-2.449-4.102-12.499c0.419-9.095,0.962-18.29,1.333-27.316
			c0.406-9.909-11.692-12.296-19.349-11.692c-1.073,0.989-4.393,1.875-8.179,2.249c-1.771,0.175-3.784,0.233-5.283,0.094
			c-1.241-0.175-2.484-0.337-2.955-0.731c-9.666,1.196-21.214,7.626-22.615,17.517c-1.251,8.799-1.683,18.669-2.458,27.981
			c-0.682,8.214-2.916,10.14-5.689,11.987c2.08,0.318,3.317,1.352,3.236,2.397c-0.08,1.045-1.498,2.264-3.686,3.284
			c2.025,1.223,4.493,3.3,4.058,9.431c-0.743,10.509-2.063,21.708-2.076,31.625c-0.011,9.203,14.663,11.353,22.058,10.783
			c1.415-1.482,4.396-1.909,8.172-2.239c1.885-0.164,3.505-0.307,5.107-0.135c1.34,0.032,2.401,0.408,3.182,0.942
			c10.693-1.011,22.421-8.496,22.899-20.146c0.321-7.87,0.566-15.832,0.875-23.74c0.334-8.559,2.56-11.989,5.223-13.484
			c-2.563-0.759-3.304-1.767-3.262-2.815C384.31,198.387,385.669,196.811,387.778,195.945z M359.476,201.654
			c-0.062,1.045-1.701,2.386-3.583,3.3c2.291,1.139,4.256,3.08,3.752,12.969c-0.485,9.497-0.928,19.035-1.361,28.54
			c-0.201,4.507-2.936,5.916-7.773,6.343c-5.106,0.443-7.471-0.824-7.258-5.022c0.468-9.243,0.979-18.532,1.516-27.771
			c0.427-7.334,1.779-12.101,5.051-14.058c-2.305-0.824-3.283-1.915-3.207-3.113c0.076-1.199,1.21-2.659,3.622-3.636
			c-2.018-0.995-4.008-2.753-3.405-11.428c0.682-9.774,1.414-19.596,2.172-29.372c0.288-3.736,2.457-5.478,7.793-5.999
			c5.326-0.52,6.728,1.02,6.495,4.458c-0.668,9.884-1.304,19.814-1.903,29.699c-0.343,5.693-1.372,10.112-5.134,12.237
			C358.303,199.365,359.536,200.609,359.476,201.654z"/>
	</g>
	<g>
		<path fill-rule="evenodd" clip-rule="evenodd" d="M320.201,250.851c1.184,19.866,16.054,28.34,36.197,31.007
			c16.177,2.115,32.967,0.587,49.141-0.92c9.862-0.917,20.796-2.144,32.984-3.788c30.247-4.013,64.95-6.745,89.098-0.059
			c12.554,3.497,24.572,10.594,31.37,22.572c1.019,1.855,1.557,0.894,1.153,0.206c-11.314-20.858-36.345-28.247-58.981-31.255
			c-23.997-3.14-61.498,2.837-97.047,7.192C373.901,277.415,332.455,281.115,320.201,250.851z"/>
		<path fill-rule="evenodd" clip-rule="evenodd" d="M613.192,331.229c3.666,7.714,4.491,16.164,1.038,24.111
			c-6.678,16.461-29.335,20.33-42.843,10.312c-3.835-2.856-7.264-6.474-9.741-11.697c-2.793-5.698-5.244-10.846-14.055-10.422
			c11.364-4.569,22.579,7.532,33.337,14.666c10.771,7.158,23.155,10.059,32.529-3.969c6.3-15.163-3.948-30.668-14.643-38.507
			c-28.993-21.199-85.179-11.853-118.415-7.666c-34.887,4.451-68.428,13.23-104.368,9.543c-25.77-2.695-54.95-12.428-63.912-32.755
			c8.044,15.98,38.577,28.168,77.494,27.743c29.454-0.351,60.401-8.297,92.126-11.86
			C510.063,297.554,591.938,287.065,613.192,331.229z"/>
		<path fill-rule="evenodd" clip-rule="evenodd" d="M368.554,294.208c-17.51-0.564-34.605-4.055-46.763-15.042
			c-9.894-8.938-15.683-29.559-6.147-45.812l-0.016-0.188c-3.494,5.931-5.538,12.181-5.664,18.343
			c-0.324,14.687,4.888,27.27,23.366,38.705c10.03,6.209,21.066,9.354,34.178,10.684c20.836,2.162,40.992,0.096,61.735-3.173
			c29.402-4.647,59.86-8.85,89.477-9.858c35.452-1.203,74.157,3.181,90.034,23.012c-16.492-23.765-54.255-29.806-87.403-30.515
			c-32.521-0.662-64.135,3.733-96.387,9.206C406.298,292.798,387.332,294.815,368.554,294.208z"/>
	</g>
	<g>
		<g>
			<g>
				<g>
					<g>
						<path d="M446.204,99.487c-1.549,0-2.802,1.261-2.802,2.81c0,0.766,0.299,1.458,0.796,1.962l-13.443,11.555l-7.78-17.477
							c0.962-0.413,1.641-1.406,1.641-2.544c0-1.536-1.232-2.793-2.775-2.793c-1.551,0-2.805,1.257-2.805,2.793
							c0,1.133,0.672,2.104,1.661,2.544l-8.006,17.772l-13.281-11.814c0.532-0.522,0.861-1.215,0.861-1.999
							c0-1.549-1.258-2.81-2.784-2.81c-1.559,0-2.803,1.261-2.803,2.81c0,1.538,1.244,2.786,2.803,2.786
							c0.233,0,0.486-0.043,0.702-0.118l6.037,20.275h34.87l6.358-20.275c0.241,0.07,0.488,0.118,0.752,0.118
							c1.529,0,2.78-1.248,2.78-2.786C448.984,100.748,447.733,99.487,446.204,99.487z"/>
					</g>
				</g>
			</g>
			<g>
				<g>
					<g>
						<path d="M439.273,126.64h-34.879c-1.61,0-2.939,1.326-2.939,2.955c0,1.651,1.329,2.968,2.939,2.968h34.879
							c1.633,0,2.95-1.317,2.95-2.968C442.224,127.966,440.906,126.64,439.273,126.64z"/>
					</g>
				</g>
			</g>
			<g>
				<g>
					<g>
						<path d="M411.861,112.783l2.865-5.595l-3.826-4.33c0.332-0.27,0.581-0.693,0.581-1.167c0-0.84-0.687-1.504-1.511-1.504
							c-0.842,0-1.516,0.664-1.516,1.504c0,0.606,0.345,1.12,0.878,1.355l-2.223,5.425L411.861,112.783z"/>
					</g>
				</g>
			</g>
			<g>
				<g>
					<g>
						<path d="M431.741,112.783l4.734-4.312l-2.164-5.373c0.556-0.209,0.971-0.773,0.971-1.408c0-0.84-0.681-1.504-1.534-1.504
							c-0.829,0-1.5,0.664-1.5,1.504c0,0.435,0.196,0.821,0.491,1.101l-3.866,4.397L431.741,112.783z"/>
					</g>
				</g>
			</g>
		</g>
		<g>
			<polygon fill-rule="evenodd" clip-rule="evenodd" points="330.586,117.104 332.873,121.737 337.989,122.48 334.288,126.091 
				335.16,131.185 330.586,128.778 326.015,131.185 326.885,126.091 323.185,122.48 328.3,121.737 			"/>
			<polygon fill-rule="evenodd" clip-rule="evenodd" points="513.077,117.104 515.367,121.737 520.48,122.48 516.784,126.091 
				517.656,131.185 513.077,128.778 508.507,131.185 509.376,126.091 505.678,122.48 510.79,121.737 			"/>
		</g>
		<g>
			<polygon fill-rule="evenodd" clip-rule="evenodd" points="354.842,111.003 357.363,116.11 363,116.929 358.92,120.906 
				359.885,126.523 354.842,123.871 349.801,126.523 350.762,120.906 346.684,116.929 352.32,116.11 			"/>
			<polygon fill-rule="evenodd" clip-rule="evenodd" points="488.825,111.003 491.345,116.11 496.983,116.929 492.906,120.906 
				493.867,126.523 488.825,123.871 483.786,126.523 484.745,120.906 480.668,116.929 486.303,116.11 			"/>
		</g>
		<g>
			<polygon fill-rule="evenodd" clip-rule="evenodd" points="380.903,108.204 383.561,113.585 389.5,114.448 385.201,118.641 
				386.215,124.553 380.903,121.761 375.592,124.553 376.606,118.641 372.309,114.448 378.248,113.585 			"/>
			<polygon fill-rule="evenodd" clip-rule="evenodd" points="462.761,108.204 465.417,113.585 471.359,114.448 467.059,118.641 
				468.072,124.553 462.761,121.761 457.449,124.553 458.465,118.641 454.168,114.448 460.104,113.585 			"/>
		</g>
	</g>
	<g>
		<path d="M288.763,338.954c0-0.572-0.146-0.999-0.662-1.33l-2.212-1.378c-0.148-0.145-0.517-0.282-0.517-0.422
			c0-0.146,0.149-0.289,0.443-0.289h9.217c7.671,0,11.653,3.039,11.653,8.781c0,5.457-2.582,7.312-5.458,8.448
			c2.876,0.95,5.604,2.943,5.604,8.213c0,6.883-3.393,10.154-9.438,10.154h-11.578c-0.294,0-0.443-0.144-0.443-0.287
			c0-0.14,0.369-0.234,0.517-0.423l2.212-1.377c0.515-0.33,0.662-0.76,0.662-1.33V338.954z M294.443,351.866h1.106
			c3.612,0,5.161-1.85,5.161-7.55c0-4.84-1.548-6.405-5.161-6.405h-1.106V351.866z M294.443,368.756h2.287
			c3.244,0,3.98-1.702,3.98-8.113c0-4.646-1.548-6.408-5.161-6.408h-1.106V368.756z"/>
		<path d="M329.47,363.204c-0.072-0.234-0.293-0.423-0.662-0.423h-5.459c-0.22,0-0.367,0.146-0.44,0.331l-1.108,5.222
			c-0.073,0.333,0.074,0.61,0.371,0.855l1.622,1.089c0.294,0.232,0.736,0.427,0.736,0.566c0,0.144-0.147,0.287-0.516,0.287h-8.48
			c-0.294,0-0.442-0.144-0.442-0.287c0-0.14,0.294-0.334,0.516-0.473l2.065-1.327c0.442-0.289,0.516-0.76,0.589-1.185l6.712-31.896
			c0.073-0.237,0.221-0.429,0.587-0.429h2.729c0.371,0,0.591,0.24,0.665,0.523l7.006,31.844c0.075,0.482,0.295,0.999,0.811,1.287
			l2.139,1.232c0.222,0.14,0.443,0.283,0.443,0.423c0,0.144-0.147,0.287-0.517,0.287h-10.619c-0.368,0-0.518-0.144-0.518-0.287
			c0-0.14,0.296-0.283,0.518-0.423l1.991-1.28c0.294-0.197,0.443-0.523,0.37-0.956L329.47,363.204z M328.439,360.268
			c0.222,0,0.369-0.146,0.295-0.338l-2.582-11.624h-0.148l-2.433,11.675c-0.073,0.192,0.074,0.287,0.222,0.287H328.439z"/>
		<path d="M356.83,367.715c0,0.57,0.148,1,0.666,1.33l2.211,1.377c0.146,0.14,0.515,0.283,0.515,0.423
			c0,0.144-0.146,0.287-0.441,0.287h-11.579c-0.294,0-0.442-0.144-0.442-0.287c0-0.14,0.37-0.283,0.516-0.423l2.213-1.377
			c0.514-0.33,0.663-0.76,0.663-1.33v-28.761c0-0.572-0.149-0.999-0.663-1.33l-2.213-1.378c-0.146-0.145-0.516-0.282-0.516-0.422
			c0-0.146,0.148-0.289,0.442-0.289h9.217c7.67,0,11.653,2.612,11.653,8.781c0,5.269-2.875,7.406-5.458,8.448
			c2.508,0.856,4.721,2.707,4.721,5.317v9.915c0,0.337,0.293,0.621,0.663,0.858l2.361,1.614c0.294,0.187,0.589,0.375,0.589,0.519
			s-0.369,0.144-0.737,0.144h-3.835c-3.391,0-4.719-1.424-4.719-3.035v-10.205c0-2.087-1.991-3.657-4.573-3.657h-1.253V367.715z
			 M356.83,351.866h1.106c3.612,0,5.088-1.85,5.088-7.55c0-4.84-1.476-6.405-5.088-6.405h-1.106V351.866z"/>
		<path d="M383.598,338.954c0-0.572-0.148-0.999-0.664-1.33l-2.213-1.378c-0.146-0.145-0.515-0.282-0.515-0.422
			c0-0.146,0.148-0.289,0.443-0.289h9.217c7.67,0,11.652,3.039,11.652,8.781c0,5.457-2.581,7.312-5.458,8.448
			c2.878,0.95,5.606,2.943,5.606,8.213c0,6.883-3.393,10.154-9.438,10.154h-11.578c-0.295,0-0.443-0.144-0.443-0.287
			c0-0.14,0.369-0.234,0.515-0.423l2.213-1.377c0.516-0.33,0.664-0.76,0.664-1.33V338.954z M389.275,351.866h1.108
			c3.613,0,5.161-1.85,5.161-7.55c0-4.84-1.548-6.405-5.161-6.405h-1.108V351.866z M389.275,368.756h2.289
			c3.242,0,3.981-1.702,3.981-8.113c0-4.646-1.548-6.408-5.161-6.408h-1.108V368.756z"/>
		<path d="M421.059,351.817h1.625c0.367,0,0.663-0.095,0.811-0.333l2.582-3.32c0.146-0.194,0.219-0.285,0.44-0.285
			c0.221,0,0.296,0.091,0.296,0.285v10.065c0,0.138-0.075,0.232-0.296,0.232c-0.294,0-0.37-0.144-0.518-0.331l-2.505-3.466
			c-0.147-0.234-0.443-0.334-0.811-0.334h-1.625v14.425h4.204c0.96,0,1.693-0.283,1.991-0.854l3.979-9.108
			c0.078-0.188,0.298-0.287,0.521-0.287c0.219,0,0.365,0.147,0.365,0.287v11.911c0,0.236-0.221,0.427-0.589,0.427h-19.1
			c-0.294,0-0.443-0.144-0.443-0.287c0-0.14,0.37-0.234,0.517-0.423l2.213-1.377c0.516-0.33,0.662-0.76,0.662-1.33v-28.761
			c0-0.572-0.146-0.999-0.662-1.33l-2.213-1.378c-0.147-0.145-0.517-0.282-0.517-0.422c0-0.146,0.149-0.289,0.443-0.289h19.1
			c0.297,0,0.589,0.191,0.589,0.429v11.817c0,0.188-0.146,0.286-0.365,0.286c-0.298,0-0.521-0.144-0.592-0.325l-3.984-8.934
			c-0.29-0.612-0.956-0.897-1.916-0.897h-4.204V351.817z"/>
		<path d="M455.793,363.204c-0.073-0.234-0.296-0.423-0.667-0.423h-5.457c-0.219,0-0.366,0.146-0.439,0.331l-1.107,5.222
			c-0.072,0.333,0.075,0.61,0.371,0.855l1.622,1.089c0.295,0.232,0.736,0.427,0.736,0.566c0,0.144-0.146,0.287-0.518,0.287h-8.48
			c-0.291,0-0.438-0.144-0.438-0.287c0-0.14,0.291-0.334,0.511-0.473l2.067-1.327c0.441-0.289,0.518-0.76,0.59-1.185l6.712-31.896
			c0.073-0.237,0.22-0.429,0.591-0.429h2.727c0.368,0,0.594,0.24,0.661,0.523l7.01,31.844c0.071,0.482,0.294,0.999,0.81,1.287
			l2.137,1.232c0.225,0.14,0.444,0.283,0.444,0.423c0,0.144-0.146,0.287-0.516,0.287h-10.621c-0.369,0-0.514-0.144-0.514-0.287
			c0-0.14,0.292-0.283,0.514-0.423l1.994-1.28c0.295-0.197,0.441-0.523,0.367-0.956L455.793,363.204z M454.76,360.268
			c0.221,0,0.366-0.146,0.295-0.338l-2.583-11.624h-0.146l-2.435,11.675c-0.073,0.192,0.077,0.287,0.225,0.287H454.76z"/>
		<path d="M483.153,367.715c0,0.57,0.146,1,0.661,1.33l2.213,1.377c0.148,0.14,0.514,0.283,0.514,0.423
			c0,0.144-0.147,0.287-0.443,0.287h-11.577c-0.295,0-0.439-0.144-0.439-0.287c0-0.14,0.368-0.283,0.517-0.423l2.213-1.377
			c0.514-0.33,0.661-0.76,0.661-1.33v-28.761c0-0.572-0.147-0.999-0.661-1.33l-2.213-1.378c-0.148-0.145-0.517-0.282-0.517-0.422
			c0-0.146,0.145-0.289,0.439-0.289h9.221c7.666,0,11.651,2.612,11.651,8.781c0,5.269-2.878,7.406-5.456,8.448
			c2.508,0.856,4.717,2.707,4.717,5.317v9.915c0,0.337,0.296,0.621,0.663,0.858l2.363,1.614c0.292,0.187,0.587,0.375,0.587,0.519
			s-0.366,0.144-0.735,0.144h-3.834c-3.393,0-4.719-1.424-4.719-3.035v-10.205c0-2.087-1.994-3.657-4.574-3.657h-1.251V367.715z
			 M483.153,351.866h1.102c3.612,0,5.09-1.85,5.09-7.55c0-4.84-1.478-6.405-5.09-6.405h-1.102V351.866z"/>
		<path d="M509.918,338.954c0-0.572-0.146-0.999-0.664-1.33l-2.209-1.378c-0.148-0.145-0.519-0.282-0.519-0.422
			c0-0.146,0.149-0.289,0.441-0.289h11.581c0.294,0,0.438,0.144,0.438,0.289c0,0.14-0.365,0.277-0.516,0.422l-2.213,1.378
			c-0.512,0.331-0.661,0.758-0.661,1.33v28.761c0,0.57,0.149,1,0.661,1.33l2.213,1.377c0.15,0.14,0.516,0.283,0.516,0.423
			c0,0.144-0.145,0.287-0.438,0.287h-11.581c-0.292,0-0.441-0.144-0.441-0.287c0-0.14,0.37-0.283,0.519-0.423l2.209-1.377
			c0.518-0.33,0.664-0.76,0.664-1.33V338.954z"/>
		<path d="M541.777,363.204c-0.076-0.234-0.298-0.423-0.667-0.423h-5.458c-0.22,0-0.367,0.146-0.438,0.331l-1.105,5.222
			c-0.076,0.333,0.073,0.61,0.364,0.855l1.625,1.089c0.295,0.232,0.737,0.427,0.737,0.566c0,0.144-0.147,0.287-0.513,0.287h-8.481
			c-0.299,0-0.444-0.144-0.444-0.287c0-0.14,0.296-0.334,0.515-0.473l2.066-1.327c0.44-0.289,0.516-0.76,0.589-1.185l6.713-31.896
			c0.073-0.237,0.221-0.429,0.589-0.429h2.728c0.37,0,0.592,0.24,0.663,0.523l7.007,31.844c0.074,0.482,0.296,0.999,0.812,1.287
			l2.135,1.232c0.221,0.14,0.447,0.283,0.447,0.423c0,0.144-0.148,0.287-0.517,0.287h-10.621c-0.369,0-0.514-0.144-0.514-0.287
			c0-0.14,0.29-0.283,0.514-0.423l1.987-1.28c0.3-0.197,0.447-0.523,0.37-0.956L541.777,363.204z M540.74,360.268
			c0.226,0,0.37-0.146,0.297-0.338l-2.58-11.624h-0.146l-2.434,11.675c-0.077,0.192,0.072,0.287,0.22,0.287H540.74z"/>
	</g>
</g>
</svg>
